<svg xmlns="http://www.w3.org/2000/svg" class="w-14 h-14" viewBox="0 0 40  40">
    <circle cx="20" cy="20" r="20" fill="#c0cec9" />
    <path
        d="M 19 20 A 1 1 0 0 0 30 20 M 17 20 A 1 1 0 0 0 32 20"
        stroke="#000000"
        stroke-width=".0"
        fill=""
        fill-rule="evenodd"
    />
    <path
        d="M 29 15 L 29 11 L 33 15 L 29 15"
        stroke="#000000"
        stroke-width="0.5"
        fill="#58afdb"
        fill-rule="evenodd"
        stroke-linejoin="round"
    />
    <path
        d="M 29 11 L 31 11 L 33 13 L 33 15 L 29 11"
        stroke="#000000"
        stroke-width="0.5"
        fill="#7cc3f2"
        fill-rule="evenodd"
        stroke-linejoin="round"
    />

    <path
        d="M 10 20 A 1 1 0 0 0 21 20 A 1 1 0 0 0 10 20 M 8 20 A 1 1 0 0 0 23 20 A 1 1 0 0 0 8 20"
        stroke="#000000"
        stroke-width=".0"
        fill=""
        fill-rule="evenodd"
    />
    <path
        d="M 30 20 A 1 1 0 0 0 19 20 M 32 20 A 1 1 0 0 0 17 20"
        stroke="#000000"
        stroke-width=".0"
        fill=""
        fill-rule="evenodd"
    />
</svg>
